<mxfile host="app.diagrams.net" agent="Mozilla/5.0 (Windows NT 10.0; Win64; x64) AppleWebKit/537.36 (KHTML, like Gecko) Chrome/132.0.0.0 Safari/537.36" version="26.0.10">
  <diagram name="Page-1" id="jFc4BTH8DVDn7cBMbdIp">
    <mxGraphModel dx="955" dy="1694" grid="1" gridSize="10" guides="1" tooltips="1" connect="1" arrows="1" fold="1" page="1" pageScale="1" pageWidth="850" pageHeight="1100" math="0" shadow="0">
      <root>
        <mxCell id="0" />
        <mxCell id="1" parent="0" />
        <mxCell id="Ow05RK1Qy2FsAMIHKfBV-3" value="" style="rounded=1;whiteSpace=wrap;html=1;" vertex="1" parent="1">
          <mxGeometry x="16" y="-960" width="680" height="590" as="geometry" />
        </mxCell>
        <mxCell id="Ow05RK1Qy2FsAMIHKfBV-4" value="&lt;span data-teams=&quot;true&quot;&gt;&lt;span style=&quot;font-family: -apple-system, BlinkMacSystemFont, &amp;quot;Segoe UI&amp;quot;, system-ui, &amp;quot;Apple Color Emoji&amp;quot;, &amp;quot;Segoe UI Emoji&amp;quot;, &amp;quot;Segoe UI Web&amp;quot;, sans-serif; white-space-collapse: preserve;&quot;&gt;&lt;font style=&quot;font-size: 11px;&quot;&gt;&lt;p style=&quot;&quot;&gt;&amp;nbsp; \Deloitte_Selected_Providers&lt;/p&gt;&lt;p style=&quot;&quot;&gt;&lt;br&gt;&lt;/p&gt;&lt;p style=&quot;&quot;&gt;&amp;nbsp; \Deloitte_LR_Providers&lt;/p&gt;&lt;p style=&quot;&quot;&gt;&lt;br&gt;&lt;/p&gt;&lt;p style=&quot;&quot;&gt;&amp;nbsp; \TR_LR_Results_File&lt;/p&gt;&lt;p style=&quot;&quot;&gt;&lt;br&gt;&lt;/p&gt;&lt;p style=&quot;&quot;&gt;&amp;nbsp; \TR_HR_Results_File&lt;/p&gt;&lt;p style=&quot;&quot;&gt;&lt;br&gt;&lt;/p&gt;&lt;p style=&quot;&quot;&gt;&amp;nbsp; \Final_HPMS_Output_File&lt;/p&gt;&lt;p style=&quot;&quot;&gt;&lt;br&gt;&lt;/p&gt;&lt;p style=&quot;&quot;&gt;&lt;br&gt;&lt;/p&gt;&lt;/font&gt;&lt;/span&gt;&lt;/span&gt;" style="rounded=0;whiteSpace=wrap;html=1;align=left;" vertex="1" parent="1">
          <mxGeometry x="97" y="-755" width="210" height="260" as="geometry" />
        </mxCell>
        <mxCell id="Ow05RK1Qy2FsAMIHKfBV-35" style="edgeStyle=orthogonalEdgeStyle;rounded=0;orthogonalLoop=1;jettySize=auto;html=1;entryX=0;entryY=0.5;entryDx=0;entryDy=0;" edge="1" parent="1" source="Ow05RK1Qy2FsAMIHKfBV-5" target="Ow05RK1Qy2FsAMIHKfBV-21">
          <mxGeometry relative="1" as="geometry" />
        </mxCell>
        <mxCell id="Ow05RK1Qy2FsAMIHKfBV-5" value="&lt;span style=&quot;font-family: -apple-system, BlinkMacSystemFont, &amp;quot;Segoe UI&amp;quot;, system-ui, &amp;quot;Apple Color Emoji&amp;quot;, &amp;quot;Segoe UI Emoji&amp;quot;, &amp;quot;Segoe UI Web&amp;quot;, sans-serif; font-size: 11px; white-space-collapse: preserve;&quot;&gt;match_file.csv&lt;/span&gt;" style="rounded=1;whiteSpace=wrap;html=1;align=left;" vertex="1" parent="1">
          <mxGeometry x="142" y="-735" width="90" height="20" as="geometry" />
        </mxCell>
        <mxCell id="Ow05RK1Qy2FsAMIHKfBV-6" value="&lt;span style=&quot;font-family: -apple-system, BlinkMacSystemFont, &amp;quot;Segoe UI&amp;quot;, system-ui, &amp;quot;Apple Color Emoji&amp;quot;, &amp;quot;Segoe UI Emoji&amp;quot;, &amp;quot;Segoe UI Web&amp;quot;, sans-serif; font-size: 11px; white-space-collapse: preserve;&quot;&gt;low-risk proviers.csv&lt;/span&gt;" style="rounded=1;whiteSpace=wrap;html=1;align=left;" vertex="1" parent="1">
          <mxGeometry x="142" y="-684" width="115" height="20" as="geometry" />
        </mxCell>
        <mxCell id="Ow05RK1Qy2FsAMIHKfBV-7" value="AWS SFTP" style="text;html=1;align=center;verticalAlign=middle;resizable=0;points=[];autosize=1;strokeColor=none;fillColor=none;" vertex="1" parent="1">
          <mxGeometry x="539" y="-646.71" width="80" height="30" as="geometry" />
        </mxCell>
        <mxCell id="Ow05RK1Qy2FsAMIHKfBV-45" style="edgeStyle=orthogonalEdgeStyle;rounded=0;orthogonalLoop=1;jettySize=auto;html=1;" edge="1" parent="1" source="Ow05RK1Qy2FsAMIHKfBV-8" target="Ow05RK1Qy2FsAMIHKfBV-26">
          <mxGeometry relative="1" as="geometry">
            <Array as="points">
              <mxPoint x="204" y="-600" />
              <mxPoint x="376" y="-600" />
              <mxPoint x="376" y="-470" />
              <mxPoint x="484" y="-470" />
            </Array>
          </mxGeometry>
        </mxCell>
        <mxCell id="Ow05RK1Qy2FsAMIHKfBV-8" value="&lt;font face=&quot;-apple-system, BlinkMacSystemFont, Segoe UI, system-ui, Apple Color Emoji, Segoe UI Emoji, Segoe UI Web, sans-serif&quot;&gt;&lt;span style=&quot;font-size: 11px; white-space-collapse: preserve;&quot;&gt;LR_MATCH_RESULTS.csv&lt;/span&gt;&lt;/font&gt;" style="rounded=1;whiteSpace=wrap;html=1;align=left;" vertex="1" parent="1">
          <mxGeometry x="142" y="-635" width="124" height="20" as="geometry" />
        </mxCell>
        <mxCell id="Ow05RK1Qy2FsAMIHKfBV-46" style="edgeStyle=orthogonalEdgeStyle;rounded=0;orthogonalLoop=1;jettySize=auto;html=1;entryX=0.209;entryY=0.026;entryDx=0;entryDy=0;entryPerimeter=0;exitX=0.858;exitY=0.978;exitDx=0;exitDy=0;exitPerimeter=0;" edge="1" parent="1" source="Ow05RK1Qy2FsAMIHKfBV-9" target="Ow05RK1Qy2FsAMIHKfBV-26">
          <mxGeometry relative="1" as="geometry">
            <mxPoint x="376" y="-450" as="targetPoint" />
            <Array as="points">
              <mxPoint x="273" y="-550" />
              <mxPoint x="336" y="-550" />
              <mxPoint x="336" y="-460" />
              <mxPoint x="436" y="-460" />
            </Array>
          </mxGeometry>
        </mxCell>
        <mxCell id="Ow05RK1Qy2FsAMIHKfBV-60" style="edgeStyle=orthogonalEdgeStyle;rounded=0;orthogonalLoop=1;jettySize=auto;html=1;entryX=0.5;entryY=1;entryDx=0;entryDy=0;startArrow=classic;startFill=0;endArrow=none;dashed=1;" edge="1" parent="1" source="Ow05RK1Qy2FsAMIHKfBV-9" target="Ow05RK1Qy2FsAMIHKfBV-37">
          <mxGeometry relative="1" as="geometry">
            <Array as="points">
              <mxPoint x="346" y="-575" />
              <mxPoint x="346" y="-490" />
              <mxPoint x="505" y="-490" />
              <mxPoint x="505" y="-470" />
              <mxPoint x="776" y="-470" />
            </Array>
          </mxGeometry>
        </mxCell>
        <mxCell id="Ow05RK1Qy2FsAMIHKfBV-9" value="&lt;font face=&quot;-apple-system, BlinkMacSystemFont, Segoe UI, system-ui, Apple Color Emoji, Segoe UI Emoji, Segoe UI Web, sans-serif&quot;&gt;&lt;span style=&quot;font-size: 11px; white-space-collapse: preserve;&quot;&gt;TR High Risk Results.csv&lt;/span&gt;&lt;/font&gt;" style="rounded=1;whiteSpace=wrap;html=1;align=left;" vertex="1" parent="1">
          <mxGeometry x="142" y="-586" width="152.5" height="21" as="geometry" />
        </mxCell>
        <mxCell id="Ow05RK1Qy2FsAMIHKfBV-10" value="&lt;font face=&quot;-apple-system, BlinkMacSystemFont, Segoe UI, system-ui, Apple Color Emoji, Segoe UI Emoji, Segoe UI Web, sans-serif&quot;&gt;&lt;span style=&quot;font-size: 11px; white-space-collapse: preserve;&quot;&gt;Final_HPMS_Output_file.csv&lt;/span&gt;&lt;/font&gt;" style="rounded=1;whiteSpace=wrap;html=1;align=left;" vertex="1" parent="1">
          <mxGeometry x="140.75" y="-535" width="152.5" height="21" as="geometry" />
        </mxCell>
        <mxCell id="Ow05RK1Qy2FsAMIHKfBV-14" value="" style="rounded=0;whiteSpace=wrap;html=1;" vertex="1" parent="1">
          <mxGeometry x="56" y="-920" width="570" height="90" as="geometry" />
        </mxCell>
        <mxCell id="Ow05RK1Qy2FsAMIHKfBV-48" style="edgeStyle=orthogonalEdgeStyle;rounded=0;orthogonalLoop=1;jettySize=auto;html=1;dashed=1;" edge="1" parent="1" source="Ow05RK1Qy2FsAMIHKfBV-10" target="Ow05RK1Qy2FsAMIHKfBV-17">
          <mxGeometry relative="1" as="geometry">
            <Array as="points">
              <mxPoint x="66" y="-524" />
              <mxPoint x="66" y="-780" />
              <mxPoint x="476" y="-780" />
            </Array>
          </mxGeometry>
        </mxCell>
        <mxCell id="Ow05RK1Qy2FsAMIHKfBV-13" value="HPMS GDIT POC" style="text;html=1;align=center;verticalAlign=middle;resizable=0;points=[];autosize=1;strokeColor=none;fillColor=none;" vertex="1" parent="1">
          <mxGeometry x="517" y="-1030" width="120" height="30" as="geometry" />
        </mxCell>
        <mxCell id="Ow05RK1Qy2FsAMIHKfBV-15" style="edgeStyle=orthogonalEdgeStyle;rounded=0;orthogonalLoop=1;jettySize=auto;html=1;entryX=0;entryY=0.5;entryDx=0;entryDy=0;" edge="1" parent="1" source="Ow05RK1Qy2FsAMIHKfBV-16" target="Ow05RK1Qy2FsAMIHKfBV-5">
          <mxGeometry relative="1" as="geometry">
            <Array as="points">
              <mxPoint x="186" y="-792" />
              <mxPoint x="126" y="-792" />
              <mxPoint x="126" y="-725" />
            </Array>
          </mxGeometry>
        </mxCell>
        <mxCell id="Ow05RK1Qy2FsAMIHKfBV-17" value="&lt;div&gt;Final HPMS Output&amp;nbsp;&lt;/div&gt;" style="rounded=0;whiteSpace=wrap;html=1;" vertex="1" parent="1">
          <mxGeometry x="416" y="-880" width="120" height="32.5" as="geometry" />
        </mxCell>
        <mxCell id="Ow05RK1Qy2FsAMIHKfBV-16" value="Providers and Attributes" style="rounded=0;whiteSpace=wrap;html=1;" vertex="1" parent="1">
          <mxGeometry x="116" y="-885" width="140" height="35" as="geometry" />
        </mxCell>
        <mxCell id="Ow05RK1Qy2FsAMIHKfBV-18" value="&lt;span style=&quot;text-wrap-mode: wrap;&quot;&gt;Delloite ADM&lt;/span&gt;" style="text;html=1;align=center;verticalAlign=middle;resizable=0;points=[];autosize=1;strokeColor=none;fillColor=none;" vertex="1" parent="1">
          <mxGeometry x="286" y="-920" width="90" height="30" as="geometry" />
        </mxCell>
        <mxCell id="Ow05RK1Qy2FsAMIHKfBV-19" style="edgeStyle=orthogonalEdgeStyle;rounded=0;orthogonalLoop=1;jettySize=auto;html=1;entryX=0;entryY=0.5;entryDx=0;entryDy=0;exitX=0.25;exitY=1;exitDx=0;exitDy=0;" edge="1" parent="1" source="Ow05RK1Qy2FsAMIHKfBV-21" target="Ow05RK1Qy2FsAMIHKfBV-22">
          <mxGeometry relative="1" as="geometry" />
        </mxCell>
        <mxCell id="Ow05RK1Qy2FsAMIHKfBV-20" style="edgeStyle=orthogonalEdgeStyle;rounded=0;orthogonalLoop=1;jettySize=auto;html=1;entryX=0;entryY=0.5;entryDx=0;entryDy=0;exitX=0.25;exitY=1;exitDx=0;exitDy=0;" edge="1" parent="1" source="Ow05RK1Qy2FsAMIHKfBV-21" target="Ow05RK1Qy2FsAMIHKfBV-24">
          <mxGeometry relative="1" as="geometry" />
        </mxCell>
        <mxCell id="Ow05RK1Qy2FsAMIHKfBV-21" value="&lt;span style=&quot;font-family: -apple-system, BlinkMacSystemFont, &amp;quot;Segoe UI&amp;quot;, system-ui, &amp;quot;Apple Color Emoji&amp;quot;, &amp;quot;Segoe UI Emoji&amp;quot;, &amp;quot;Segoe UI Web&amp;quot;, sans-serif; font-size: 11px; white-space-collapse: preserve;&quot;&gt;pre_processing_script.py&lt;/span&gt;" style="rounded=1;whiteSpace=wrap;html=1;align=left;fillColor=#d5e8d4;strokeColor=#82b366;" vertex="1" parent="1">
          <mxGeometry x="349" y="-748.97" width="130" height="36.57" as="geometry" />
        </mxCell>
        <mxCell id="Ow05RK1Qy2FsAMIHKfBV-42" style="edgeStyle=orthogonalEdgeStyle;rounded=0;orthogonalLoop=1;jettySize=auto;html=1;entryX=1;entryY=0.5;entryDx=0;entryDy=0;dashed=1;" edge="1" parent="1" source="Ow05RK1Qy2FsAMIHKfBV-22" target="Ow05RK1Qy2FsAMIHKfBV-6">
          <mxGeometry relative="1" as="geometry">
            <Array as="points">
              <mxPoint x="445" y="-700" />
              <mxPoint x="330" y="-700" />
              <mxPoint x="330" y="-674" />
            </Array>
          </mxGeometry>
        </mxCell>
        <mxCell id="Ow05RK1Qy2FsAMIHKfBV-22" value="&lt;span style=&quot;font-family: -apple-system, BlinkMacSystemFont, &amp;quot;Segoe UI&amp;quot;, system-ui, &amp;quot;Apple Color Emoji&amp;quot;, &amp;quot;Segoe UI Emoji&amp;quot;, &amp;quot;Segoe UI Web&amp;quot;, sans-serif; font-size: 11px; white-space-collapse: preserve;&quot;&gt;low-risk proviers.csv&lt;/span&gt;" style="rounded=1;whiteSpace=wrap;html=1;align=left;" vertex="1" parent="1">
          <mxGeometry x="401.96" y="-684" width="104.04" height="24" as="geometry" />
        </mxCell>
        <mxCell id="Ow05RK1Qy2FsAMIHKfBV-23" style="edgeStyle=orthogonalEdgeStyle;rounded=0;orthogonalLoop=1;jettySize=auto;html=1;entryX=0;entryY=0.5;entryDx=0;entryDy=0;" edge="1" parent="1" source="Ow05RK1Qy2FsAMIHKfBV-24" target="Ow05RK1Qy2FsAMIHKfBV-25">
          <mxGeometry relative="1" as="geometry" />
        </mxCell>
        <mxCell id="Ow05RK1Qy2FsAMIHKfBV-24" value="&lt;span style=&quot;font-family: -apple-system, BlinkMacSystemFont, &amp;quot;Segoe UI&amp;quot;, system-ui, &amp;quot;Apple Color Emoji&amp;quot;, &amp;quot;Segoe UI Emoji&amp;quot;, &amp;quot;Segoe UI Web&amp;quot;, sans-serif; font-size: 11px; white-space-collapse: preserve;&quot;&gt;High-risk proviers&lt;/span&gt;" style="rounded=1;whiteSpace=wrap;html=1;align=left;" vertex="1" parent="1">
          <mxGeometry x="401.96" y="-593.89" width="94.04" height="26.89" as="geometry" />
        </mxCell>
        <mxCell id="Ow05RK1Qy2FsAMIHKfBV-25" value="&lt;span style=&quot;font-family: -apple-system, BlinkMacSystemFont, &amp;quot;Segoe UI&amp;quot;, system-ui, &amp;quot;Apple Color Emoji&amp;quot;, &amp;quot;Segoe UI Emoji&amp;quot;, &amp;quot;Segoe UI Web&amp;quot;, sans-serif; font-size: 11px; white-space-collapse: preserve;&quot;&gt;post_processing_script.py&lt;/span&gt;&lt;div&gt;&lt;span style=&quot;font-family: -apple-system, BlinkMacSystemFont, &amp;quot;Segoe UI&amp;quot;, system-ui, &amp;quot;Apple Color Emoji&amp;quot;, &amp;quot;Segoe UI Emoji&amp;quot;, &amp;quot;Segoe UI Web&amp;quot;, sans-serif; font-size: 11px; white-space-collapse: preserve;&quot;&gt;( TR API Token)&lt;/span&gt;&lt;/div&gt;" style="rounded=1;whiteSpace=wrap;html=1;align=center;fillColor=#d5e8d4;strokeColor=#82b366;" vertex="1" parent="1">
          <mxGeometry x="472.46000000000004" y="-546.89" width="140" height="36.57" as="geometry" />
        </mxCell>
        <mxCell id="Ow05RK1Qy2FsAMIHKfBV-26" value="&lt;span style=&quot;font-family: -apple-system, BlinkMacSystemFont, &amp;quot;Segoe UI&amp;quot;, system-ui, &amp;quot;Apple Color Emoji&amp;quot;, &amp;quot;Segoe UI Emoji&amp;quot;, &amp;quot;Segoe UI Web&amp;quot;, sans-serif; font-size: 11px; white-space-collapse: preserve;&quot;&gt;final_post_processing_script.py&lt;/span&gt;" style="rounded=1;whiteSpace=wrap;html=1;align=left;fillColor=#d5e8d4;strokeColor=#82b366;" vertex="1" parent="1">
          <mxGeometry x="401.32" y="-440" width="164.71" height="36.57" as="geometry" />
        </mxCell>
        <mxCell id="Ow05RK1Qy2FsAMIHKfBV-76" style="edgeStyle=orthogonalEdgeStyle;rounded=0;orthogonalLoop=1;jettySize=auto;html=1;entryX=1;entryY=0.25;entryDx=0;entryDy=0;dashed=1;" edge="1" parent="1" source="Ow05RK1Qy2FsAMIHKfBV-27" target="Ow05RK1Qy2FsAMIHKfBV-8">
          <mxGeometry relative="1" as="geometry">
            <Array as="points">
              <mxPoint x="407" y="-650" />
              <mxPoint x="407" y="-630" />
            </Array>
          </mxGeometry>
        </mxCell>
        <mxCell id="Ow05RK1Qy2FsAMIHKfBV-27" value="" style="sketch=0;points=[[0,0,0],[0.25,0,0],[0.5,0,0],[0.75,0,0],[1,0,0],[0,1,0],[0.25,1,0],[0.5,1,0],[0.75,1,0],[1,1,0],[0,0.25,0],[0,0.5,0],[0,0.75,0],[1,0.25,0],[1,0.5,0],[1,0.75,0]];outlineConnect=0;fontColor=#232F3E;fillColor=#01A88D;strokeColor=#ffffff;dashed=0;verticalLabelPosition=bottom;verticalAlign=top;align=center;html=1;fontSize=12;fontStyle=0;aspect=fixed;shape=mxgraph.aws4.resourceIcon;resIcon=mxgraph.aws4.transfer_for_sftp;" vertex="1" parent="1">
          <mxGeometry x="547.0037288135591" y="-704.4399999999999" width="63.45762711864407" height="63.45762711864407" as="geometry" />
        </mxCell>
        <mxCell id="Ow05RK1Qy2FsAMIHKfBV-28" style="edgeStyle=orthogonalEdgeStyle;rounded=0;orthogonalLoop=1;jettySize=auto;html=1;entryX=0;entryY=0.5;entryDx=0;entryDy=0;entryPerimeter=0;" edge="1" parent="1" source="Ow05RK1Qy2FsAMIHKfBV-22" target="Ow05RK1Qy2FsAMIHKfBV-27">
          <mxGeometry relative="1" as="geometry" />
        </mxCell>
        <mxCell id="Ow05RK1Qy2FsAMIHKfBV-29" value="Deloitte&amp;nbsp;&lt;div&gt;PIMAS&amp;nbsp;&lt;/div&gt;&lt;div&gt;Contractor&lt;/div&gt;" style="text;html=1;align=center;verticalAlign=middle;resizable=0;points=[];autosize=1;strokeColor=none;fillColor=none;" vertex="1" parent="1">
          <mxGeometry x="86" y="-1055" width="80" height="60" as="geometry" />
        </mxCell>
        <mxCell id="Ow05RK1Qy2FsAMIHKfBV-33" style="edgeStyle=orthogonalEdgeStyle;rounded=0;orthogonalLoop=1;jettySize=auto;html=1;entryX=0.5;entryY=0;entryDx=0;entryDy=0;" edge="1" parent="1" source="Ow05RK1Qy2FsAMIHKfBV-31" target="Ow05RK1Qy2FsAMIHKfBV-16">
          <mxGeometry relative="1" as="geometry" />
        </mxCell>
        <mxCell id="Ow05RK1Qy2FsAMIHKfBV-31" value="" style="verticalLabelPosition=bottom;shadow=0;dashed=0;align=center;html=1;verticalAlign=top;strokeWidth=1;shape=mxgraph.mockup.containers.userMale;strokeColor=#666666;strokeColor2=#008cff;" vertex="1" parent="1">
          <mxGeometry x="166" y="-1050" width="40" height="50" as="geometry" />
        </mxCell>
        <mxCell id="Ow05RK1Qy2FsAMIHKfBV-71" style="edgeStyle=orthogonalEdgeStyle;rounded=0;orthogonalLoop=1;jettySize=auto;html=1;entryX=0.5;entryY=0;entryDx=0;entryDy=0;" edge="1" parent="1" source="Ow05RK1Qy2FsAMIHKfBV-32" target="Ow05RK1Qy2FsAMIHKfBV-17">
          <mxGeometry relative="1" as="geometry" />
        </mxCell>
        <mxCell id="Ow05RK1Qy2FsAMIHKfBV-32" value="" style="image;aspect=fixed;perimeter=ellipsePerimeter;html=1;align=center;shadow=0;dashed=0;spacingTop=3;image=img/lib/active_directory/user_accounts.svg;" vertex="1" parent="1">
          <mxGeometry x="451" y="-1051" width="50" height="48.5" as="geometry" />
        </mxCell>
        <mxCell id="Ow05RK1Qy2FsAMIHKfBV-41" style="edgeStyle=orthogonalEdgeStyle;rounded=0;orthogonalLoop=1;jettySize=auto;html=1;entryX=1;entryY=0.75;entryDx=0;entryDy=0;dashed=1;entryPerimeter=0;exitX=0;exitY=0.75;exitDx=0;exitDy=0;" edge="1" parent="1" source="Ow05RK1Qy2FsAMIHKfBV-36" target="Ow05RK1Qy2FsAMIHKfBV-27">
          <mxGeometry relative="1" as="geometry">
            <Array as="points">
              <mxPoint x="710" y="-656" />
              <mxPoint x="680" y="-657" />
            </Array>
          </mxGeometry>
        </mxCell>
        <mxCell id="Ow05RK1Qy2FsAMIHKfBV-36" value="Thomson Reuters&lt;div&gt;low Risk PROCESS&lt;/div&gt;&lt;div&gt;&lt;br&gt;&lt;/div&gt;" style="rounded=0;whiteSpace=wrap;html=1;fillColor=#dae8fc;strokeColor=#6c8ebf;" vertex="1" parent="1">
          <mxGeometry x="716" y="-704" width="120" height="63.29" as="geometry" />
        </mxCell>
        <mxCell id="Ow05RK1Qy2FsAMIHKfBV-37" value="Thomson Reuters&lt;div&gt;High Risk PROCESS&lt;/div&gt;" style="rounded=0;whiteSpace=wrap;html=1;fillColor=#60a917;fontColor=#ffffff;strokeColor=#2D7600;" vertex="1" parent="1">
          <mxGeometry x="716" y="-545" width="120" height="40" as="geometry" />
        </mxCell>
        <mxCell id="Ow05RK1Qy2FsAMIHKfBV-40" style="edgeStyle=orthogonalEdgeStyle;rounded=0;orthogonalLoop=1;jettySize=auto;html=1;entryX=0;entryY=0.5;entryDx=0;entryDy=0;" edge="1" parent="1" source="Ow05RK1Qy2FsAMIHKfBV-27" target="Ow05RK1Qy2FsAMIHKfBV-36">
          <mxGeometry relative="1" as="geometry" />
        </mxCell>
        <mxCell id="Ow05RK1Qy2FsAMIHKfBV-43" style="edgeStyle=orthogonalEdgeStyle;rounded=0;orthogonalLoop=1;jettySize=auto;html=1;entryX=-0.013;entryY=0.411;entryDx=0;entryDy=0;entryPerimeter=0;" edge="1" parent="1" source="Ow05RK1Qy2FsAMIHKfBV-25" target="Ow05RK1Qy2FsAMIHKfBV-37">
          <mxGeometry relative="1" as="geometry" />
        </mxCell>
        <mxCell id="Ow05RK1Qy2FsAMIHKfBV-47" style="edgeStyle=orthogonalEdgeStyle;rounded=0;orthogonalLoop=1;jettySize=auto;html=1;entryX=0.441;entryY=0.971;entryDx=0;entryDy=0;entryPerimeter=0;" edge="1" parent="1" source="Ow05RK1Qy2FsAMIHKfBV-26" target="Ow05RK1Qy2FsAMIHKfBV-10">
          <mxGeometry relative="1" as="geometry" />
        </mxCell>
        <mxCell id="Ow05RK1Qy2FsAMIHKfBV-49" value="1" style="text;html=1;align=center;verticalAlign=middle;resizable=0;points=[];autosize=1;strokeColor=none;fillColor=none;" vertex="1" parent="1">
          <mxGeometry x="176" y="-995" width="30" height="30" as="geometry" />
        </mxCell>
        <mxCell id="Ow05RK1Qy2FsAMIHKfBV-50" value="3" style="text;html=1;align=center;verticalAlign=middle;resizable=0;points=[];autosize=1;strokeColor=none;fillColor=none;" vertex="1" parent="1">
          <mxGeometry x="246" y="-751" width="30" height="30" as="geometry" />
        </mxCell>
        <mxCell id="Ow05RK1Qy2FsAMIHKfBV-51" value="4." style="text;html=1;align=center;verticalAlign=middle;resizable=0;points=[];autosize=1;strokeColor=none;fillColor=none;" vertex="1" parent="1">
          <mxGeometry x="376" y="-698" width="30" height="30" as="geometry" />
        </mxCell>
        <mxCell id="Ow05RK1Qy2FsAMIHKfBV-52" value="10" style="text;html=1;align=center;verticalAlign=middle;resizable=0;points=[];autosize=1;strokeColor=none;fillColor=none;" vertex="1" parent="1">
          <mxGeometry x="371" y="-606" width="40" height="30" as="geometry" />
        </mxCell>
        <mxCell id="Ow05RK1Qy2FsAMIHKfBV-53" value="7" style="text;html=1;align=center;verticalAlign=middle;resizable=0;points=[];autosize=1;strokeColor=none;fillColor=none;" vertex="1" parent="1">
          <mxGeometry x="637" y="-698" width="30" height="30" as="geometry" />
        </mxCell>
        <mxCell id="Ow05RK1Qy2FsAMIHKfBV-54" value="8" style="text;html=1;align=center;verticalAlign=middle;resizable=0;points=[];autosize=1;strokeColor=none;fillColor=none;" vertex="1" parent="1">
          <mxGeometry x="642" y="-660" width="30" height="30" as="geometry" />
        </mxCell>
        <mxCell id="Ow05RK1Qy2FsAMIHKfBV-55" value="11" style="text;html=1;align=center;verticalAlign=middle;resizable=0;points=[];autosize=1;strokeColor=none;fillColor=none;" vertex="1" parent="1">
          <mxGeometry x="441.46" y="-561" width="40" height="30" as="geometry" />
        </mxCell>
        <mxCell id="Ow05RK1Qy2FsAMIHKfBV-56" value="12" style="text;html=1;align=center;verticalAlign=middle;resizable=0;points=[];autosize=1;strokeColor=none;fillColor=none;" vertex="1" parent="1">
          <mxGeometry x="632" y="-555" width="40" height="30" as="geometry" />
        </mxCell>
        <mxCell id="Ow05RK1Qy2FsAMIHKfBV-57" value="13" style="text;html=1;align=center;verticalAlign=middle;resizable=0;points=[];autosize=1;strokeColor=none;fillColor=none;" vertex="1" parent="1">
          <mxGeometry x="742" y="-495" width="40" height="30" as="geometry" />
        </mxCell>
        <mxCell id="Ow05RK1Qy2FsAMIHKfBV-61" value="14" style="text;html=1;align=center;verticalAlign=middle;resizable=0;points=[];autosize=1;strokeColor=none;fillColor=none;" vertex="1" parent="1">
          <mxGeometry x="366" y="-494" width="40" height="30" as="geometry" />
        </mxCell>
        <mxCell id="Ow05RK1Qy2FsAMIHKfBV-62" value="15" style="text;html=1;align=center;verticalAlign=middle;resizable=0;points=[];autosize=1;strokeColor=none;fillColor=none;" vertex="1" parent="1">
          <mxGeometry x="325" y="-483" width="40" height="30" as="geometry" />
        </mxCell>
        <mxCell id="Ow05RK1Qy2FsAMIHKfBV-63" value="16" style="text;html=1;align=center;verticalAlign=middle;resizable=0;points=[];autosize=1;strokeColor=none;fillColor=none;" vertex="1" parent="1">
          <mxGeometry x="198.25" y="-451" width="40" height="30" as="geometry" />
        </mxCell>
        <mxCell id="Ow05RK1Qy2FsAMIHKfBV-64" value="17" style="text;html=1;align=center;verticalAlign=middle;resizable=0;points=[];autosize=1;strokeColor=none;fillColor=none;" vertex="1" parent="1">
          <mxGeometry x="56" y="-555" width="40" height="30" as="geometry" />
        </mxCell>
        <mxCell id="Ow05RK1Qy2FsAMIHKfBV-65" value="18" style="text;html=1;align=center;verticalAlign=middle;resizable=0;points=[];autosize=1;strokeColor=none;fillColor=none;" vertex="1" parent="1">
          <mxGeometry x="466" y="-1000" width="40" height="30" as="geometry" />
        </mxCell>
        <mxCell id="Ow05RK1Qy2FsAMIHKfBV-69" value="AWS Account" style="points=[[0,0],[0.25,0],[0.5,0],[0.75,0],[1,0],[1,0.25],[1,0.5],[1,0.75],[1,1],[0.75,1],[0.5,1],[0.25,1],[0,1],[0,0.75],[0,0.5],[0,0.25]];outlineConnect=0;gradientColor=none;html=1;whiteSpace=wrap;fontSize=12;fontStyle=0;container=1;pointerEvents=0;collapsible=0;recursiveResize=0;shape=mxgraph.aws4.group;grIcon=mxgraph.aws4.group_account;strokeColor=#CD2264;fillColor=none;verticalAlign=top;align=left;spacingLeft=30;fontColor=#CD2264;dashed=0;" vertex="1" parent="1">
          <mxGeometry x="56" y="-820" width="570" height="430" as="geometry" />
        </mxCell>
        <mxCell id="Ow05RK1Qy2FsAMIHKfBV-68" value="" style="shape=image;verticalLabelPosition=bottom;labelBackgroundColor=default;verticalAlign=top;aspect=fixed;imageAspect=0;image=data:image/png,iVBORw0KGgoAAAANSUhEUgAAARUAAABQCAYAAAA3DOGJAAAAAXNSR0IArs4c6QAAAARnQU1BAACxjwv8YQUAAAAJcEhZcwAADsMAAA7DAcdvqGQAAB3ySURBVHhe7Z15eFTlvce/s++ZzExCIOxgZBdEWcIi4AKKeIWrte6K1dta1NZ63Uq1Xm21hatVlGoVL1bAelEBFQRKZVcIsooQQiBsIQuZJbPvM/ePzCTvWefMQlDv+3kensecWZyZc97v+9uPLJlMJkGhUCgFQs4+QKFQKPlARYVCoRQUKioUCqWgUFGhUCgFhYoKhUIpKFRUKBRKQaGiQqFQCgoVFQqFUlCoqFAolIJCRYVCoRQUKioUCqWgUFGhUCgFhYoKhUIpKLIL0aW83xXF/tYoDEoZxtrU6KlXsJ/Cy15XFAdaozApZagsUaO7TtrrKBRK59HpojK/2ovFJwLtf+sVMrwy0owrSjWM57H542Evlp3seJ1BKcOrI4sxvkTNeB6FQrmwdKr7885xP0NQACAQT+JXe9yo8cQYx0kW1voYggIA/lgSD+9pxXGf8OsoFErn06misrI+yD4EAAgnkvisgf8xAFhRH2IfAgCE4kmsbuB/jEKhXBg6VVRO+uPsQ+2c8Ak/1hgUfqyOWioUyveKThUVuYx9pIOYQGgnzn+4nUyPUyiUzqVTRYVCofz4oaJCoVAKSl6i8pU9gkf2tqJyQwtu2u7AqzU+uCIJ9tPaSYi4KnLw+0YK/sOSOOSO4ukDbkz6sgXXb3HgxcNeNIeE4zMUCiV/chaVXY4IHtjlwr+awnBHE6j2xPD2cT+u3WzHeycCvLEOsZhKAjwvyDFm4owk8NtvPbjlKyc+PRtCSziBE/4Ylp4M4NavnQjk8qYUCkUSOYvKW8f87EMAAG8siXnVXszYase2ljDjsc6wVN4+7sfVm+xYVR/klanmUAKrBFLblB8nrkgCfzvmx7TNdgz+ohmDv2jGA7tc8ESZVvXCWh8m/KsFr9T4GMc7k43NYVy50Y6H97Qi+APd/HISlXAiiZ2OCPswg1P+OH7+TSvm7G7FKZFUcqHY2BzG1M12vFrjQyjDyfiqRfyzU348fOeOYupmO1476sOZQMd1+JU9gs/OdtQ4eWNJLKz1wxlJYNFxP1rCwm78+eSNWh+aQnF82RzGxmbmpvxDISdR0Yj5MSw2nQvjui12zD/iZT9UEM6FErh/lwsP7WlFPXHRiKHK4vNTfrj4Y0n8cncr/DH+TaaPQdn+34EYU0S8LCumsyA/q0/gc3/fyUlUAGBCaXY9N4vrmGX2bGQ5rvPv3FF8bc/O8phSJt5nRPlxsKjODzthcdzRR485FQbMqTDgw3HWrK9hijRyFpW5g4vQVVu4LmGB2reCc203LW7srmUfpvwIWXGmI3b26wFGzB1swpwKI+ZUGHFJsYrxXErhyFlUehsU+GSC9QezQLUKGZ4YZMIrl5rZD1F+hJwLJRhxkWu6Uuu0s8hZVADAopbjpeFmLK20osLU4Z9+37iumxbrJ5fg3r569kOUHylNrHqkvkT8hFI4fLEkHt3nxq1fO3HnDifurXLlJyppRlpU+HSiDb8bYoJJlVtwJNeYihgVJiWWjLXg5UvNKNUU5KtSfiCQtUhmFT3354tf7m7FzO5afDjOiqWVVjwzxFQYUUlze2891k0qwc09deyHOhWTSobfDTHh04k2XGalwbj/j5AxuvOxYVGAz8+GMKFUDU802V7/s8cZLayoIOUSPT+sCB+Nt2JYFsEwZYFO/M09dVg3qQS3974wro4zksAuRwTfOCOSU9zfB0LxJOp8Mex3RX9Qn/v7RFMojgOtUdR6Y/BGhTMP6WskUz1VLuxzRfHOcf7CVCE80QSOemM40BrNqo1lnyuCK1OZ1Jk9dHh0gBGHPdHM4yS90SRWNwSxyxmFVS3H+BJ1+xtJYUV9EC8fEe8JAoD/6G/ArwcY2YcBADdsdWSc8DasWIVnh5gwxCxNyNzRBL5oCKHKEUWpVo4rStWYmGGkpRD+WBJrGkL47GwQe11RxmNFKjmuLtPgnr560bjT2WAcv9nnhjOcwPPDilCZGpN5OhDHusYQdtgjOOmPoTmUQG+DAv2MSowrUeP6bloUq3PbG7zRJFadDWJ1QwgHW5mfGwAmddHghnItppeLB+MX1vqxsNaHkRYVllZa2Q8XnL/U+PDOcT9GWdX4+1gLkCpee3yfG1tZVdx8jLGpsXhM2+vSNIfimLLR3v736its6GcUPl9ptraE8dnZEL5sCiPMKhnva1Di+nItbuqpRRmRKZ2x1YE6XwxTu2rx6khm4mDaZnt7kd7vhxbhp72kW/1vHfNjwdG2auC7+ujx9GAT+yntnPLHsbI+iLWNIUZRYJrRNjUmddFgtkgccsFRHyaWalAfiOPjM0H4Ygk8crFRXFSckQRmbnMwcv1IxSp+O9iEMTZproU3msQCnpGQJF9MKkEfA3+K+r0TAcyr5i+es6jleGygEf/eQ/qPv+RkAAtr/Zwy7evLtZg/Irvs0Lt1fiys9Uvade7oo8dcgRO9qj6I337rAVIX/Z+Hm/FStRfrG8Un25lVcjwxyIhZWXx/pEZ7Lqrzi+6oaXrpFfjPgSZcLZBBSS8SAHh1pBlTu4qLUD40hxKYsrGl/e8tV5WiVCPH6oYQntjvZjxXjH+Ms2I4YUlnKypVjgjmVXtRLTIGleSO3nr8aoARZ4NxzNrmaD9+eHoZ43m5isqCoz5G68w1XTV4bWQx4zlIWVOv1vgY1cRiVJiUmDfcjAFF3N9ivyuKFfVB3NFHD3ckgVKtHIfdMXH3Z9FxZvFQmlpvDLOrXHh4TyuvyrExqWSYO7gtxnE5K8ZhVsnx6shiQUEBgHv76nELz497R5+2GI5UQdl8LozpW+x46bCXIygAsKYhhN1O6YV0bx7z4+UjmdsC0iw7GcCc3a3swwAAsnjymC+GG7c5MgoKUhbX3G89eOEQv+jy8dQBN/5S45MkKEhZS4/sbcVHRN0HyVhic1kpMPqzUHxBjA/tqVe0B+CHF6skW2w99QpcJCIYmVh+OojZVS7JggIAy04FcP8uF9wZLPZcYAsKANzT18D4GwCOeGK4ebtTsqAgtdZnbXfgH6e4BsEIiwpmlRxrGkLorlfAqpbDG0uKWypXbbKLjnJMM7uvHg9WGGGUGBjZ2BxGtSeKHnolpnbVQCexa/BMII5/NYURiCcxvVwjOU1Y54vhT9VebJfQ83N3Xz2eGsRvTZA0heK4ktjZAOCB/gZML9diAOHmfHwmiBX1Qewn3CI+V+/jM0E8e7DNUmFTrlOgskSNwUVKdNMpcNQbw8HWKLa3RBgm943dtXhpuLilNa/ai/dYw8cnd9FgerkWlxSr0EUjxyl/HDsdEXx2NshZOK9casa13ZiWyIHWKG772tn+9/arS2GVuMCzhXSF2wrZOhZPKJ7EQXcUySRwyBPD/JR1a1TK8MZlbbu2Ui7DSAvXRZZqqXxyJohnWOepj0GBmT10GF+iRj+jEq2RBI54Y1jfGOIs4O46Bc4SaypfS+XVGh/eJmIoOoUMf728mONFHPXGcDurQ79MK8dPeupxYw8t43Y3axtDWH46iCpWf98Tg0y8ZRmH3FF83hCCJ5rEtd004qIydkML747Oh00jx6MDsnND+NjUHMZhT9sCvL5cJ2rBZMITTWDBUT8+4FFZIX7SU4f/GlbEPszhjVof/lrbcTLnjTBjhkjsYcnJAP6Sana81KLCMlbsQUhUfjfEJBh0dkUSeO47DzY0dcQRHh9owux+/M9nuwgDi5R4abiZIYJs1jWG8PvvPO1WjVYhw/+O49YlXbfF3t44+tQgE+7mufjypdoTw03bO1yHf04uQQ+Be0btsEfws10uAECxWo6vry5lP4WBFFE52BrFTwnxBIDnhhbxWtFp6gNxPHvQI9iAm4+ovFLjwyJCUExKGf42yoIRLNF0RxO4ebuTIWYPXmTAwxfzxzDT7LBH8MQBNxyEt7JkrCVjRlV0OxnE40cJ4Qgn8LtvPfj37Y6sXAiSlfVBzNnTmgr8+XHnDmfOg60/OBXAtM2OrAQFgORA7zFvx+fqb1SKCgpSgbOVE2yYU2HAExIsIaSsAiFBQSqe9NrIYkwlYh3v1Pl558WcCyUYojXapsaySquooCDV1vDReFt7oDEUT+KxfdzYxY3dOy7+FRJHS5wJxLGw1s/ZEYUgR1ZcblULCsr5Ym4q5oWUuH44zioqKADQQ6/A/4yxZB3zysR/H2EKilklx9/HWjmCgtRzSUH5wyVFGQUFACpL1Hh/rAUWwur87bceTkCajaioPDbQCL1E1yTNEU8Md+904dF9bjRIcJ3SfHo2xDhpSAWK761yiU7hZ/OVPYIZWx34wyEv3BKtrDRDzKqMF0kaNxGPKJFYWNfboMCcCiMjQCjEzB46jpshxAvDzO0nvjWSwDqeWMzC2o7YT7lOgQUjzZLdzl76tuenOeaLYQ3r1ihku8ZRbww1hOgKcW+VCwtrfZhd5UKthOeT/89/6+T2kNUNIRwjNriXLinKqn/oj5cU8S74XJhf7cX/1HUISqlGjmWVFgzkMQLqfDF8QsTCHrzIkJU30degxOsp1xGpjWAJy31mI7oahppVWMZj6kphfWMIV29qm2ORKZC5uiGEpw9wdz8AsIcTuHunE6czBIRP+uP45e5WPLDLlZN1M6Nci/dT6UkplBM+aJUjUvCZMT/vzw20CWFSyTCTWGSkO4SU+UsGWX89wIiiLKtMhxWrcBNR1MiOy3TTKTCKMIs/y2CtbGgKM+J1S0Uyg0gF2Z2pIKdGLpMsuIVi+emO7zPGpsa0HP7/T0q0UMWYx7rDZ7lOgaWVVo6rloY87z30CkkWCpuRFhXD0lqVIdCb8coaYFLi04k2PDu0KKdy5/TEre/c3DoI8Pj5fNjDCdy1wymYaVp8IoDpW+zYfC5zjQKbgUVKLK20Yt4I6Ts3AExktc3P2u7A3G89knbcTJRpFeidZSyJ9HOPsj7D1nMd7kWJRp7RVRPizj4drtghd5STGbyxR8f7fprhwlvGcks/bwjBKzI/hHy/q7pqMiYFyHcSjhpKwxtNMlz6e3KMFw0vVmGoRPeaj5cOM4PsvQ0KLKu0it6LnBz09JM8Kt1v693x2jpfTHTjlqwSt/bSYd1kG24T8fGFaAkncPdOF5pDzItwbSNXUIpSKeZHWIqafg+2sKysD7ZH+bPBopbjuaFFWDHBxpsNyMS13bSY1KUjlhGKJ7GyPogbtzlw5w4nPjoTlBzkZpNLn1IXbcdr2Bm7HUTMItcCP6Q2GNLVY8dCpnbVtg/wckYSnHGiaY75YtjFem0onmSMKiDxRpOM9PpMIn4jBCk5+Zbp729lflYyhZ4t43K89/eLh71YQlhzA4qUWFZpRRlx3tm0hBOM9XLCH8fCWl9O/7awNuxveYol0wh/Ih7MKjmeSfXUsFNWmQjFk1h+uuNHOeyOcgJ+VrUcSystmNpVg19cZMBzQ5lZmOZQvD2in4ZthkvhrlR9i9T4iRBvXl6MG3h8+72uKH5/0IOxG1rw4O5WrGkIZQxukeQymI49jY8M1pKxrYtzcGVJSL+dLfBGpYxRILdKoGblAwFXRyiovpYQlBKNvNOHK5EWWX+jEtosLFo22SQ/0vzhkJfjHr49ypIxbU9mbZAKdKeTILn8IxGLmYl/KgEqTEosHmPJejYJWcLOF3x9erCJUZR0Sy9usLI+EG9foIF4Mit3o59RidVX2PD04Ny7qdn8ebgZb15eLGjWbjkXxuP73Ri3oQV/qs4+eFwIyEVhzvN7l2g6TG2+PhEyC7S2McQpsPPGkgyfnMxunQnEea2bz852WDA35Oi65QPZYlKszu/365LFYLNkSlD4xPbPEqzzdAzqfCA2lDsnUQGA3c4Ip4ovE6RZzxe/YJtY7miCUTSWJr0r6xWyjL41SZ0vhjeP+XGO5Ybly6QuGiwfb8VH4624rbeeN2gWjCfx/okArt3sEIwvnS/I30jsYpACGXTn27EnlKoZO+i6Jqa1sqo+2P4eOoUMjw4wMtzPD04xXaAzgThjM5qVR1wgVwzKju+TRUKTl2x+/0XHhWusvmgI4V0iA8QHe42NsqoL8u+evnpOeIIka1FpCrU1vt2908UJCGaCDHBNKdNwUmyrG0J47ru2tLIz0hZDYQ/beaiC+WXuIIKHUljTEMK1W+z4W5aCKIUhZhWeGWLC6its2HdtF/zxkiJO3Ys7msD9u1qzSrfnCxkHacpTUMnPLbTrkunlT1lZIHKR3NhdC4NShlsJa2XLuTDDrSKtlEFFyrzK63OFFMmmPM9bNuedfG4PvQKLx1gYWbuXj/hEq8TJOBsAzB9hxt/HWvL+9+Qgk6jrJfwIi3AiiQVHfbhyo523DiITLwzjLrB3Rlk4uf7lp4OYuc2BmdscHNfmgf4G/JIoywaAX11sxFVZdE0jtdu+dtSHazbZOenXQqGRyzCrhw4fjbdi8RgLo8jME00wSqvPN4OKOn7jb3IsTERqyhcZoBsiEB/4N8IF2uuKtpcDbG9hpt5vT20IM8qZndZkn8kKIi5DulaZKGT2h6zqdkYSopmPTLCD21LopVdgyVgrxtjUeP0yZsjhN/uEb4HTXadguPm78jj32SBJVNY1hnDdZkfW7g5Su/fy8VZGjUMag1KGd0ZbOPGIo94YJ115Xz8DHhUYjfD6ZcV4flgRo/JPCmeDcfxqbyvuq3JlHK2QD2Nsak4twY4s7wCQD1cQgc39rihvPEsKZDOfUSnDaIFg/YAiJSMg/HnK2iCtlJEWFcPqIAd7fZJykfa6ooxM1gyeoLgQhcz+VJiUjLTtusbcNiJ/LClpNANJP6MSS4gszyirGs8TbSS+DLchmURk+9hWY7b8symEe3a68GWG+xFlXIVPH3DjN/vcHDckE+SwJrZokJiUMrw72sKxYkju7avHfw7kF5Q0+Qxn2umI4IatDqxmVYkWEoNSxqgPYWdOzifDilWMRfF8ysXMBmckgZdrOoKD7AA6G9KqWFXfNrODrCP6aS/meSJrKLzRtvk0ZFn+pC4aUZP7fENaX++fDIjW1Ajx9xMBTuBajAqTEu+PtXBKDG7uqWOEEk74Y5zSjDTk5/7KHsk5nlfliODXe934xhnBkwL/rzSiZ+mtY/6MRUx8ZDtW0qSSYdHoYt4y47v66CX3ypBjJNkjFqTwxH73ebVYWonMj9Q2/UJBVlLudETwsUBNiBAvHvYyFsQvLhKv+CXL6M8G43iKqJguVss5qfieegWjhmbJyQCjNmUWUVh3ISCLvzzRBB7n6X8S4zt3FG/UZnc71dt76wWF9MlBJsbvtelcGK+nBjSRTChVM9pCnjnY0RwqleZQglH+wRegJ+H/xCnI0mQpXG5V5zwA26ySY/EYCyOPf3df8elVQqQVft6I7AdeS22G22GP4L4qF6OGQozmUILRBj+YR0DPJzPKtYyL69mDHk5bvhAvHvYyXJ+f9TMw2hT4sLHqSfYRGRyh3pNbibqho95YuzVgUsnO6+AnKVjVcoZ1sLUljIf3tGZsQQGAPc4IHtjFP0cnH16+1Iz+hAv55jE/b4xw7pCONVTjieHuKqfk27qe8sdxxw4nIz2dqYtfdMWRO6sYpRo55o0w4/2xlpz6hNKYVXJ8MsGGw9PLcHh6maS5JmLMKNdi3eQS3J9FH41UFV9yMoCdjgge2+fG7Tuc2CTiZ25viWB2lROtxIm5IYugY6H48wgzY5d56oAbD+9pxSEBk3hTcxgztzkYhVf9jEo8lsEVTSNU+SrUzj+lTMMYu5jmugyuVmfx5CATI7HwZXMYN2x14HMBcT6TGntw107XealPMiplePPyYkb7zJMH3Jys7FCzCnOIrGlNaoQEuymUzfLTQdy2w8nIQj14kSFjYkR0nsp9VS7BORBpHuhvwC8uMnBy4kJUOSL48HQQuxwR6BQy3NxTl9GURqrQ6rWjfqxvDKFcp8D4UjVm99XzXoR8nPLH8cIhT8ZbpGaaj5Fm+elge/o7TY+UCW9VyxCKt5UyH/ZEOUG0ERYVPhCZp3JJsQofjstu1mutt21aXJrd07rwdphvbA7joT3cXbOvQYkhZiXKtAqc9MfwjTPKaTOwaeR4b4yFsTuKEYonMfHLFsb3n1CqxtujhBs3yTmraT6o5G/pF+NrewT3p6qvzSo5dlyT/zwVpAoJ76tyMTqWkaoJudyqxsUmJZyRBKo9URxhDbjSKmT4eX8DXiO+Xz7zVNLscUZw186OSvPuOgU+nmDl9Or9Zp+bk7k1KmUYUKREX4MSZVo5ook2MTzo5g5Af+Rio6S1Kmqp/IfIG4wvUWPtpBI8OsAoSVDOBOJ4aE8rZle5sL4xBFckgYZgHAuO+nD7DubgGzbHfTFct8WBVfVBBONJHPfF8P6JAKZstON1CV3QSDVfLRptwYKRxYKme3edQvKueEsvHeaPMDNOXH0gjn+capt/+26dH984IxxBGVikbJ9CdiG4skyD98YwZ2QgFexbnSqo+rI5zBGUASYlPhpvlSwoSC2iaSy3hR2gZcOOw/XUK7IWFBQ4+0NSopFjWWVbepckGE9iW0sY79b5sbI+yBGUnnoFlo61YPx5aDG4zKrGi5d0uCRng3H8pYYbX3nlUjNngJcvlsQeZxQfn2kr4X/7uB9rG0McQXlhWJEkQUEmURlrU+PlS82MYFF3nQILRhbjndEWSZ20vlgS86u9mLbZzuiYJNnvior69/OrhYXjzVQXtNjrSa7uqsGaSTbMqTAy+mWGF6vw3lhLVrGg68u1WD/ZhocqjLxBZpIilRwPVRjxj3FW3uAbKcymLKqE05AFbmaVnNdKSTPapsaGKSV4qCLzCIR+xrbpcCsn2nK6dzYZsC3TKjKaziUaOSOzxBYZqZC/p9hvkYYdOC8V+a4mlQyLx1jwxmXC7RlptAoZ7utnwKcTbRhsVqEL0ebAN4eHtLy76biPCzGzh44hGAGB7NTjA9uKMzNl79KML1Fj1UQbb0mIEKLuD8lxXwzOSAKjssiqLD8dxIKjPkk9CDPKtZgnMMl+5PpzgqJCMtSswtwhJklDkJAyZet8MVxsUnIuqlxoDMaxyxlFtSeKGk8MiSTQy6DAtK5aSU1wzx70QC5rm7yeS2xqY3MYqxtCuLOPPqvO620tYexyRNEQjMMdTaBUI0cPvRKTuqgzLhopLD4RwG5nBPf21Uu6fk4H4vjDIQ+GmFX4eX9DxmyDECvqg1jTEMKsHjpJ4x6+skfw0ekAbuqpy6qbu84Xw4amtkrg5lAcBqUMZdo2C2tKFw3n8/+zKYS1jWHc00fPscJO+GN465gfQ80q3JVltThSsb7TgTgevMjAu3mReKIJbGgKo9oTQ3MoDk8qniiXtU19u6Fci24CVr0YkkUlG75xRvDCd16O3ymGkK8dTwLD1jazDwsiS1kQjw8yZZ35oVAo+VPQVdeQqlC9Zyc3kNVZJFM9RNM227Gw1p/VyAEKhZI/BRGVYDyJV2p8mL7FwZsnvxCE4kksrPXhus2ZU2cUCqVw5CUqydR9UKZutmPRcT8i30OroCkUx+P73bj1a6dgPQaFQikcOYtKKJ7EnN2teOaghzNhKhfkjCRgBznG6Dh82xrFT75yciZoUSiUwpKzqMw/4stp0LQQCUazegcSkj5Z8eJhL2c+KoVCKRw5iwrfvVXFGJwhNZmrpdJdp8g6HSy1v4dCoWRPdqsxBbtKVAybRo4/DTfj4/HZlZ1LZUCREusnl2Q1AS6dj6dQKIUnJ1ExKGWi9xoBAJVchp/1M+Cfk0vaqyrFpsQLuT+ZkKUqUOcONmHtpBJJt0/IpbCMQqFIIydRAWv4C5spZRqsvsKGxwYy+4LEkkNC7k8myLfsbWi7b+3Cy4pFRe8a4jYSFAqlsOQsKnMqDJz+gf5GJd4dnXlRn2+mlGmwfnIJHhto5PTRzBthLkjpOYVC4SfvMv0abwzuSAJKuSxjv8ngL4TL7a8o1eCtUfzdu2Kvu7JMI9r1644mUJPqGC1Ujw+FQhEm7xU2wKTEaJs6o6Agx5hKvills0qO0TY1RtvUVFAolE6ArjIKhVJQqKhQKJSC0qmiUkoMqGEjNBZSIWsbiiOE0OsoFMqFoVNFZaxNOO5SKVJfMr5EOAU8rkT4dRQKpfPpVFF5bCD/PVgnddFgushkricGGTlDfAHgqjJNxvGEFAqlc8k7pZwt3mgSfzvux5qGILpoFbilp07S/MvWSALvHPdjTWMI3bQK3NJLh1kC94+hUCgXjk4XFQqF8uOG61NQKBRKHlBRoVAoBeX/AKsu9ldl/+n7AAAAAElFTkSuQmCC;" vertex="1" parent="1">
          <mxGeometry x="59" y="-918" width="103.88" height="30" as="geometry" />
        </mxCell>
        <mxCell id="Ow05RK1Qy2FsAMIHKfBV-70" value="CMS OnePI" style="text;html=1;align=center;verticalAlign=middle;resizable=0;points=[];autosize=1;strokeColor=none;fillColor=none;" vertex="1" parent="1">
          <mxGeometry x="286" y="-961" width="90" height="30" as="geometry" />
        </mxCell>
        <mxCell id="Ow05RK1Qy2FsAMIHKfBV-72" value="OnePI - PIMAS (Deloitte) - Thomson Reuters Work Flow" style="text;html=1;align=center;verticalAlign=middle;resizable=0;points=[];autosize=1;strokeColor=none;fillColor=none;fontSize=20;fontStyle=1" vertex="1" parent="1">
          <mxGeometry x="77" y="-1100" width="520" height="40" as="geometry" />
        </mxCell>
        <mxCell id="Ow05RK1Qy2FsAMIHKfBV-73" value="3" style="text;html=1;align=center;verticalAlign=middle;resizable=0;points=[];autosize=1;strokeColor=none;fillColor=none;" vertex="1" parent="1">
          <mxGeometry x="178" y="-819" width="30" height="30" as="geometry" />
        </mxCell>
        <mxCell id="Ow05RK1Qy2FsAMIHKfBV-74" value="5" style="text;html=1;align=center;verticalAlign=middle;resizable=0;points=[];autosize=1;strokeColor=none;fillColor=none;" vertex="1" parent="1">
          <mxGeometry x="441.46" y="-712.4" width="30" height="30" as="geometry" />
        </mxCell>
        <mxCell id="Ow05RK1Qy2FsAMIHKfBV-75" value="6" style="text;html=1;align=center;verticalAlign=middle;resizable=0;points=[];autosize=1;strokeColor=none;fillColor=none;" vertex="1" parent="1">
          <mxGeometry x="506" y="-698" width="30" height="30" as="geometry" />
        </mxCell>
        <mxCell id="Ow05RK1Qy2FsAMIHKfBV-77" value="9" style="text;html=1;align=center;verticalAlign=middle;resizable=0;points=[];autosize=1;strokeColor=none;fillColor=none;" vertex="1" parent="1">
          <mxGeometry x="402" y="-656" width="30" height="30" as="geometry" />
        </mxCell>
      </root>
    </mxGraphModel>
  </diagram>
</mxfile>
